
<svg width="100px" height="100px" viewBox="0 0 100 100" version="1.1" xmlns="http://www.w3.org/2000/svg" xmlns:xlink="http://www.w3.org/1999/xlink">
    <g id="页面-1" stroke="none" stroke-width="1" fill="none" fill-rule="evenodd">
        <g id="去广告" fill-rule="nonzero">
            <g id="abp" transform="translate(14.447592, 14.447592)">
                <polygon id="路径" fill="#D8D9D9" points="21.3238685 0 0 21.324161 0 51.4803716 21.3238685 72.8045326 51.4798368 72.8045326 72.8045326 51.4803716 72.8045326 21.3237473 51.4802505 0"></polygon>
                <polygon id="路径" fill="#FFFFFF" points="21.9042364 1.40023831 1.3998326 21.9036983 1.3998326 50.9004206 21.9042364 71.4038806 50.9011235 71.4038806 71.4047 50.9004206 71.4047 21.9036983 50.9011235 1.40023831"></polygon>
                <polygon id="路径" fill="#ED1E45" points="23.2560842 68.1388641 4.66486769 49.5473395 4.66486769 23.2567794 23.2560842 4.66525485 49.5484484 4.66525485 68.1388376 23.2567794 68.1388376 49.5477532 49.5484484 68.1392777"></polygon>
                <path d="M19.0636187,38.1903106 L18.5672241,35.9027721 C18.2417496,34.5877272 17.943573,33.2660761 17.6728866,31.9386706 C17.3958197,30.5895416 17.1087303,29.2424903 16.8116421,27.8976283 L16.6792702,27.8976283 C16.4141128,29.2196849 16.1431641,30.572766 15.8680788,31.9581126 C15.6057849,33.2795595 15.3131104,34.5947943 14.9902878,35.9027721 L14.4595593,38.1903106 L19.0636187,38.1903106 L19.0636187,38.1903106 Z M20.0572351,42.5742768 L13.4663566,42.5742768 L12.1418105,48.4825793 L7.17372843,48.4825793 L13.9300718,23.6282459 L19.7920776,23.6282459 L26.5492483,48.4825793 L21.3817812,48.4825793 L20.0572351,42.5742768 Z M37.1807784,44.1370834 C39.8517947,44.1370834 41.1879233,43.0061376 41.1879233,40.7446597 C41.1879233,39.6517706 40.8569936,38.8575438 40.1943069,38.3619794 C39.5316202,37.8660014 38.5268349,37.6186328 37.1807784,37.6186328 L34.43158,37.6186328 L34.43158,44.1370834 L37.1807784,44.1370834 L37.1807784,44.1370834 Z M36.7166495,33.653704 C37.9092374,33.653704 38.7754459,33.3815158 39.3165159,32.8346576 C39.857586,32.2886267 40.1285346,31.5448665 40.1285346,30.6042042 C40.1285346,29.6643692 39.8517947,28.9909311 39.2999694,28.5843035 C38.7481442,28.177676 37.8976548,27.9737417 36.7497425,27.9737417 L34.43158,27.9737417 L34.43158,33.653704 L36.7166495,33.653704 L36.7166495,33.653704 Z M29.5631905,23.6286595 L36.9483003,23.6286595 C38.0751159,23.6286595 39.1179581,23.7238013 40.0784815,23.9144984 C41.0394186,24.1051956 41.8779117,24.4419146 42.5960292,24.9246556 C43.3129056,25.4078102 43.8763134,26.0431916 44.2850116,26.8303861 C44.6932961,27.6188216 44.8976452,28.6099504 44.8976452,29.8037725 C44.8966148,30.3698498 44.8243455,30.9335471 44.6825409,31.4815765 C44.5424844,32.0304272 44.3249167,32.5565148 44.0364007,33.0439695 C43.7489055,33.5271241 43.3737139,33.9589849 42.9104124,34.3399655 C42.4466971,34.7217735 41.9052134,35.0009938 41.2872022,35.1792812 L41.2872022,35.331508 C42.8326439,35.6616085 43.9979301,36.2978172 44.7818198,37.2368249 C45.5652958,38.1779008 45.9570339,39.4867203 45.9570339,41.1632834 C45.9570339,42.4344598 45.7419296,43.5273489 45.311721,44.4423643 C44.8815124,45.3573797 44.2850116,46.1135498 43.523046,46.7104608 C42.7610804,47.3077855 41.8721205,47.7528835 40.8569936,48.0440999 C39.8410395,48.3373847 38.7481442,48.4829929 37.5783077,48.4829929 L29.5631905,48.4829929 L29.5631905,23.6290732 L29.5631905,23.6286595 Z M56.887228,35.5983185 C59.5367338,35.5983185 60.8612799,34.2770892 60.8612799,31.6338033 C60.8612799,30.3378073 60.524559,29.4227919 59.8515307,28.8891708 C59.1772615,28.355136 58.1894363,28.0883255 56.887228,28.0883255 L54.1715362,28.0883255 L54.1715362,35.5983185 L56.887228,35.5983185 Z M49.3023194,23.6286595 L57.1850647,23.6286595 C58.3553148,23.6286595 59.4540014,23.761858 60.4802971,24.0290822 C61.5074202,24.2954791 62.4017577,24.740577 63.1633096,25.3627213 C63.9252752,25.9861065 64.5263263,26.8117714 64.9685311,27.8409569 C65.4099086,28.8697288 65.6303905,30.1342867 65.6303905,31.634217 C65.6303905,33.0820262 65.4041173,34.3399655 64.951571,35.4072077 C64.4990246,36.4752772 63.886391,37.3514086 63.1136702,38.0380838 C62.340122,38.7239317 61.4461982,39.2327332 60.4310713,39.5624201 C59.4147035,39.8933479 58.3329771,40.0588118 57.1850647,40.0588118 L54.1715362,40.0588118 L54.1715362,48.4825793 L49.3023194,48.4825793 L49.3023194,23.6286595 L49.3023194,23.6286595 Z" id="形状" fill="#FFFFFF"></path>
            </g>
            <g id="ban" fill="#ED1E45">
                <path d="M50,0 C77.6142858,0 100,22.3857143 100,50 C100,77.6142857 77.6142858,100 50,100 C22.3857142,100 0,77.6142858 0,50 C0,22.3857142 22.3857142,0 50,0 Z M83.5857143,21.7632653 L22.1571429,83.1918368 C22.0241884,83.3245169 21.8793663,83.4447465 21.7244897,83.5510204 C29.6289929,90.2336844 39.6492066,93.8931778 50,93.8776009 C74.2326531,93.8776009 93.877551,74.2326531 93.877551,50 C93.877551,39.244898 90.0081633,29.3938776 83.5857143,21.7632653 Z M50,6.12241121 C25.7673469,6.12241121 6.12240383,25.7673469 6.12240383,50 C6.10685417,60.8559713 10.1312207,71.3293633 17.4122449,79.3816327 C17.5306123,79.1959184 17.6693878,79.022449 17.8306122,78.8612245 L79.3265306,17.3673469 C71.2816486,10.1153866 60.8310135,6.10821892 50,6.12241121 Z" id="形状"></path>
            </g>
        </g>
    </g>
</svg>